<svg xmlns="http://www.w3.org/2000/svg" xmlns:xlink="http://www.w3.org/1999/xlink" fill="none" version="1.1" width="24" height="24" viewBox="0 0 24 24"><g><g><path d="M6.583231589889526,10.583444432373048L6.583231589889526,7.9999544323730465Q6.583231589889526,5.756294432373046,8.169741589889526,4.169784432373047Q9.756241589889527,2.5832840204730467,11.999901589889527,2.583284378073047Q14.243531589889527,2.583283781973047,15.830031589889526,4.169784432373047Q17.416531589889527,5.756294432373046,17.416531589889527,7.9999544323730465L17.416531589889527,10.583444432373048L19.229531589889525,10.583444432373048Q19.581531589889526,10.583444432373048,19.830531589889524,10.832404432373046Q20.079531589889527,11.081364432373046,20.079531589889527,11.433444432373047L20.079531589889527,20.566124432373048Q20.079531589889527,20.918224432373048,19.830531589889524,21.167124432373047Q19.581531589889526,21.416124432373046,19.229531589889525,21.416124432373046L4.768030589889526,21.416124432373046Q4.4159465898895265,21.416124432373046,4.166987589889526,21.167124432373047Q3.9180297848895265,20.918224432373048,3.9180298448895265,20.566124432373048L3.9180298448895265,11.433444432373047Q3.9180297848895265,11.081364432373046,4.166989589889527,10.832404432373046Q4.415948589889527,10.583444432373048,4.768029589889526,10.583444432373048L6.583231589889526,10.583444432373048ZM8.083231589889525,10.583444432373048L15.916531589889527,10.583444432373048L15.916531589889527,7.9999544323730465Q15.916531589889527,6.377614432373047,14.769431589889527,5.230444432373047Q13.622231589889527,4.083284432373047,11.999901589889527,4.083284432373047Q10.377561589889527,4.083284432373047,9.230401589889526,5.230444432373047Q8.083231589889525,6.377614432373047,8.083231589889525,7.9999544323730465L8.083231589889525,10.583444432373048ZM5.418031589889527,19.916124432373046L18.579531589889527,19.916124432373046L18.579531589889527,12.083444432373048L5.418031589889527,12.083444432373048L5.418031589889527,19.916124432373046ZM12.749981589889526,15.333324432373047L12.749981589889526,16.666624432373048Q12.749981589889526,16.740524432373046,12.735571589889526,16.812924432373045Q12.721161589889526,16.885424432373046,12.692891589889527,16.953624432373047Q12.664621589889526,17.021924432373048,12.623581589889527,17.083324432373047Q12.582541589889527,17.144724432373046,12.530311589889527,17.19702443237305Q12.478081589889527,17.249224432373047,12.416651589889526,17.290224432373044Q12.355241589889527,17.331324432373044,12.286991589889526,17.359524432373046Q12.218741589889527,17.387824432373048,12.146301589889527,17.402224432373046Q12.073851589889527,17.416624432373048,11.999981589889526,17.416624432373048Q11.926111589889526,17.416624432373048,11.853661589889526,17.402224432373046Q11.781211589889526,17.387824432373048,11.712971589889527,17.359524432373046Q11.644721589889526,17.331324432373044,11.583301589889526,17.290224432373044Q11.521881589889526,17.249224432373047,11.469651589889526,17.19702443237305Q11.417411589889525,17.144724432373046,11.376371589889526,17.083324432373047Q11.335341589889527,17.021924432373048,11.307071589889526,16.953624432373047Q11.278801589889525,16.885424432373046,11.264391589889527,16.813024432373048Q11.249981589889526,16.740524432373046,11.249981589889526,16.666624432373048L11.249981589889526,15.333324432373047Q11.249981589889526,15.259424432373047,11.264391589889527,15.187024432373047Q11.278801589889525,15.114524432373047,11.307071589889526,15.046324432373046Q11.335341589889527,14.978024432373047,11.376371589889526,14.916624432373046Q11.417411589889525,14.855224432373047,11.469651589889526,14.803024432373046Q11.521881589889526,14.750724432373048,11.583301589889526,14.709724432373047Q11.644721589889526,14.668724432373047,11.712971589889527,14.640424432373047Q11.781211589889526,14.612124432373047,11.853661589889526,14.597724432373047Q11.926111589889526,14.583324432373047,11.999981589889526,14.583324432373047Q12.073851589889527,14.583324432373047,12.146301589889527,14.597724432373047Q12.218741589889527,14.612124432373047,12.286991589889526,14.640424432373047Q12.355241589889527,14.668724432373047,12.416651589889526,14.709724432373047Q12.478081589889527,14.750724432373048,12.530311589889527,14.803024432373046Q12.582541589889527,14.855224432373047,12.623581589889527,14.916624432373046Q12.664621589889526,14.978024432373047,12.692891589889527,15.046324432373046Q12.721161589889526,15.114524432373047,12.735571589889526,15.187024432373047Q12.749981589889526,15.259424432373047,12.749981589889526,15.333324432373047Z" fill-rule="evenodd" fill="#245FE6" fill-opacity="1"/></g></g></svg>