<svg xmlns="http://www.w3.org/2000/svg" xmlns:xlink="http://www.w3.org/1999/xlink" fill="none" version="1.1" width="24" height="24" viewBox="0 0 24 24"><g><g><path d="M6.583251953125,11.910802356262208L6.583251953125,6.048322356262207Q6.583251953125,5.5552323562622075,7.011291953125,5.310452356262207L11.577951953125,2.698900356262207Q11.999921953125,2.457588356262207,12.421881953125,2.698901356262207L16.988551953125,5.310452356262207Q17.416551953125,5.5552323562622075,17.416551953125,6.048322356262207L17.416551953125,11.910802356262208L20.566551953125,11.910802356262208Q20.918651953125,11.910802356262208,21.167651953125,12.159762356262208Q21.416551953125,12.408722356262206,21.416551953125,12.760782356262206L21.416551953125,20.566082356262207Q21.416551953125,20.918082356262207,21.167651953125,21.167082356262206Q20.918651953125,21.41608235626221,20.566551953125,21.41608235626221L13.918051953125,21.41608235626221Q13.909051953125,21.41618235626221,13.899951953125,21.41618235626221L10.100001953125,21.41618235626221Q10.090961953125,21.41618235626221,10.081991953125,21.41608235626221L3.433251953125,21.41608235626221Q3.081170953125,21.41608235626221,2.832211953125,21.167082356262206Q2.583251953125,20.918082356262207,2.583251953125,20.566082356262207L2.583251953125,12.760782356262206Q2.583251953125,12.408722356262206,2.832210953125,12.159762356262208Q3.081169953125,11.910802356262208,3.433251953125,11.910802356262208L6.583251953125,11.910802356262208ZM7.304601953125,13.410782356262207L4.083251953125,13.410782356262207L4.083251953125,19.91608235626221L9.250001953125,19.91608235626221L9.250001953125,15.429382356262208Q9.250001953125,15.077282356262208,9.498961953125,14.828382356262207Q9.747921953125001,14.579382356262206,10.100001953125,14.579382356262206L13.899951953125,14.579382356262206Q14.252051953125,14.579382356262206,14.501051953125,14.828382356262207Q14.749951953125,15.077282356262208,14.749951953125,15.429382356262208L14.749951953125,19.91608235626221L19.916551953125,19.91608235626221L19.916551953125,13.410782356262207L16.695251953125002,13.410782356262207Q16.680951953125,13.411382356262207,16.666551953125,13.411382356262207Q16.592751953125,13.411382356262207,16.520251953124998,13.396982356262207Q16.447851953125,13.382482356262207,16.379551953125002,13.354282356262207Q16.311351953124998,13.325982356262207,16.249951953125,13.284982356262207Q16.188451953125,13.243882356262207,16.136251953125,13.191682356262207Q16.084051953124998,13.139482356262207,16.042951953124998,13.077982356262208Q16.001951953125,13.016582356262207,15.973651953125,12.948382356262208Q15.945451953125,12.880082356262207,15.930951953125,12.807682356262207Q15.916551953125,12.735182356262207,15.916551953125,12.661382356262207L15.916551953125,6.425382356262207L11.999921953125,4.185542356262207L8.083251953125,6.425382356262207L8.083251953125,12.661382356262207Q8.083251953125,12.735182356262207,8.068841953125,12.807682356262207Q8.054431953125,12.880082356262207,8.026161953125001,12.948382356262208Q7.997891953125,13.016582356262207,7.956851953125,13.077982356262208Q7.915811953125,13.139482356262207,7.863581953125,13.191682356262207Q7.811351953125,13.243882356262207,7.749931953125,13.284982356262207Q7.688511953125,13.325982356262207,7.620261953125,13.354282356262207Q7.552021953125,13.382482356262207,7.479571953125,13.396982356262207Q7.407121953125,13.411382356262207,7.333251953125,13.411382356262207Q7.318921953125,13.411382356262207,7.304601953125,13.410782356262207ZM13.249951953125,19.91608235626221L13.249951953125,16.079382356262208L10.750001953125,16.079382356262208L10.750001953125,19.91608235626221L13.249951953125,19.91608235626221ZM13.944751953125,8.714252356262207Q13.139251953125,7.908242356262207,12.000001953125,7.908242356262207Q10.860771953125,7.908242356262207,10.055281953125,8.714252356262207Q9.250001953125,9.520062356262207,9.250001953125,10.659552356262207Q9.250001953125,11.799042356262207,10.055281953125,12.604882356262207Q10.860771953125,13.410882356262206,12.000001953125,13.410882356262206Q13.139251953125,13.410882356262206,13.944751953125,12.604882356262207Q14.749951953125,11.799032356262208,14.749951953125,10.659552356262207Q14.749951953125,9.520062356262207,13.944751953125,8.714252356262207ZM11.116291953125,9.774562356262207Q11.482381953125,9.408242356262207,12.000001953125,9.408242356262207Q12.517621953125,9.408242356262207,12.883751953125,9.774562356262207Q13.249951953125,10.141092356262206,13.249951953125,10.659552356262207Q13.249951953125,11.178002356262207,12.883751953125,11.544532356262208Q12.517621953125,11.910862356262207,12.000001953125,11.910862356262207Q11.482381953125,11.910862356262207,11.116291953125,11.544532356262208Q10.750001953125,11.178002356262207,10.750001953125,10.659552356262207Q10.750001953125,10.141092356262206,11.116291953125,9.774562356262207Z" fill-rule="evenodd" fill="#245FE6" fill-opacity="1"/></g></g></svg>