<svg xmlns="http://www.w3.org/2000/svg" xmlns:xlink="http://www.w3.org/1999/xlink" fill="none" version="1.1" width="24" height="24" viewBox="0 0 24 24"><g><g><path d="M11.999921953125,13.416628247070312Q12.132891953125,13.416628247070312,12.265701953125,13.410128247070313Q12.398511953125,13.403628247070312,12.530841953125,13.390628247070312Q12.663151953125,13.377528247070313,12.794751953125,13.358028247070312Q12.926251953125,13.338528247070313,13.056651953125,13.312628247070313Q13.187051953125,13.286628247070313,13.316051953125,13.254328247070312Q13.445051953125,13.222028247070313,13.572251953125,13.183428247070312Q13.699551953125,13.144828247070313,13.824751953125,13.100028247070313Q13.949951953125,13.055228247070312,14.072751953125,13.004328247070312Q14.195651953125,12.953428247070313,14.315851953125,12.896628247070312Q14.436051953125,12.839728247070312,14.553351953125,12.777028247070312Q14.670551953125,12.714428247070312,14.784651953125,12.646028247070312Q14.898651953125,12.577658247070312,15.009251953125,12.503788247070313Q15.119851953125,12.429918247070313,15.226651953125,12.350698247070312Q15.333451953125,12.271488247070312,15.436251953125,12.187138247070312Q15.539051953125,12.102778247070313,15.637551953125,12.013478247070312Q15.736051953125,11.924178247070312,15.830051953125,11.830158247070312Q15.924151953125,11.736128247070312,16.013451953125,11.637608247070313Q16.102651953124997,11.539078247070313,16.187051953125,11.436288247070312Q16.271451953125002,11.333498247070313,16.350651953125002,11.226698247070313Q16.429851953125002,11.119898247070312,16.503751953125,11.009328247070313Q16.577551953125003,10.898768247070313,16.645951953125,10.784718247070312Q16.714351953125,10.670658247070312,16.776951953125,10.553398247070312Q16.839651953125,10.436118247070311,16.896551953124998,10.315918247070313Q16.953351953125,10.195708247070312,17.004251953125,10.072858247070313Q17.055151953124998,9.950008247070311,17.099951953125,9.824818247070311Q17.144751953125002,9.699618247070312,17.183351953124998,9.572368247070312Q17.221951953125,9.445128247070311,17.254251953125,9.316138247070313Q17.286551953125,9.187148247070311,17.312551953125002,9.056738247070314Q17.338451953125002,8.926318247070313,17.357951953125,8.794788247070311Q17.377451953125,8.663248247070314,17.390551953124998,8.530918247070312Q17.403551953125,8.398588247070313,17.410051953125,8.265778247070312Q17.416551953125,8.132968247070313,17.416551953125,7.999998247070312Q17.416551953125,7.867028247070312,17.410051953125,7.734208247070312Q17.403551953125,7.601398247070312,17.390551953124998,7.469068247070313Q17.377451953125,7.336738247070312,17.357951953125,7.2052082470703125Q17.338451953125002,7.073668247070312,17.312551953125002,6.943258247070313Q17.286551953125,6.812838247070313,17.254251953125,6.683848247070313Q17.221951953125,6.554868247070313,17.183351953124998,6.4276182470703125Q17.144751953125002,6.300378247070313,17.099951953125,6.1751782470703125Q17.055151953124998,6.049978247070312,17.004251953125,5.927128247070312Q16.953351953125,5.804278247070313,16.896551953124998,5.6840682470703126Q16.839651953125,5.563868247070312,16.776951953125,5.4465982470703125Q16.714351953125,5.329328247070313,16.645951953125,5.215268247070313Q16.577551953125003,5.101218247070312,16.503751953125,4.9906582470703125Q16.429851953125002,4.880098247070313,16.350651953125002,4.773288247070313Q16.271451953125002,4.666488247070312,16.187051953125,4.563698247070312Q16.102751953125,4.4609082470703125,16.013451953125,4.362388247070313Q15.924151953125,4.263858247070313,15.830051953125,4.1698282470703125Q15.736051953125,4.075808247070313,15.637551953125,3.9865082470703124Q15.539051953125,3.8972082470703127,15.436251953125,3.8128582470703125Q15.333451953125,3.7284982470703127,15.226651953125,3.6492882470703125Q15.119851953125,3.5700762470703125,15.009251953125,3.4962012470703128Q14.898651953125,3.4223262470703126,14.784651953125,3.3539652470703123Q14.670551953125,3.2856042470703124,14.553351953125,3.2229212470703126Q14.436051953125,3.1602392470703125,14.315851953125,3.1033862470703126Q14.195651953125,3.0465332470703124,14.072751953125,2.9956472470703126Q13.949951953125,2.9447612470703124,13.824751953125,2.8999642470703124Q13.699551953125,2.8551672470703124,13.572251953125,2.8165682470703124Q13.445051953125,2.7779682470703126,13.316051953125,2.7456592470703125Q13.187051953125,2.7133492470703127,13.056651953125,2.6874082470703127Q12.926251953125,2.6614664470703127,12.794751953125,2.6419554470703126Q12.663151953125,2.6224444470703125,12.530841953125,2.6094109470703124Q12.398511953125,2.5963774470703127,12.265701953125,2.5898528570703125Q12.132891953125,2.5833282470703125,11.999921953125,2.5833282470703125Q11.866951953125,2.5833282470703125,11.734131953125,2.5898528570703125Q11.601321953125,2.5963774470703127,11.468991953125,2.6094109470703124Q11.336661953125,2.6224444470703125,11.205121953125,2.6419554470703126Q11.073591953125,2.6614664470703127,10.943181953125,2.6874082470703127Q10.812761953125,2.7133492470703127,10.683771953125,2.7456592470703125Q10.554791953125001,2.7779682470703126,10.427541953125,2.8165682470703124Q10.300301953125,2.8551672470703124,10.175101953125,2.8999642470703124Q10.049901953125,2.9447612470703124,9.927051953125,2.9956472470703126Q9.804201953125,3.0465332470703124,9.683991953125,3.1033862470703126Q9.563791953125001,3.1602392470703125,9.446521953125,3.2229212470703126Q9.329251953125,3.2856042470703124,9.215191953125,3.3539652470703123Q9.101141953125001,3.4223262470703126,8.990581953125,3.4962012470703128Q8.880011953124999,3.5700762470703125,8.773211953125,3.6492882470703125Q8.666411953125,3.7284982470703127,8.563621953125,3.8128582470703125Q8.460831953125,3.8972082470703127,8.362311953125001,3.9865082470703124Q8.263781953125001,4.075808247070313,8.169751953125001,4.1698282470703125Q8.075731953125,4.263858247070313,7.986431953125,4.362388247070313Q7.897131953125,4.4609082470703125,7.812781953125,4.563698247070312Q7.728421953125,4.666488247070312,7.649211953125,4.773288247070313Q7.570001953125,4.880098247070313,7.496121953125,4.9906582470703125Q7.422251953125,5.101218247070312,7.353891953125,5.215268247070313Q7.285531953125,5.329328247070313,7.222841953125,5.4465982470703125Q7.160161953125,5.563868247070312,7.103311953125,5.6840682470703126Q7.046451953125,5.804278247070313,6.995571953125,5.927128247070312Q6.944681953125,6.049978247070312,6.899891953125,6.1751782470703125Q6.855091953125,6.300378247070313,6.816491953125,6.4276182470703125Q6.777891953125,6.554868247070313,6.745581953125,6.683848247070313Q6.713271953125,6.812838247070313,6.687331953125,6.943258247070313Q6.661391953125,7.073668247070312,6.641881953125,7.2052082470703125Q6.622371953125,7.336738247070312,6.609331953125,7.469068247070313Q6.596301953125,7.601398247070312,6.589771953125,7.734208247070312Q6.583251953125,7.867028247070312,6.583251953125,7.999998247070312Q6.583251953125,8.132968247070313,6.589771953125,8.265778247070312Q6.596301953125,8.398588247070313,6.609331953125,8.530918247070312Q6.622371953125,8.663248247070314,6.641881953125,8.794788247070311Q6.661391953125,8.926318247070313,6.687331953125,9.056738247070314Q6.713271953125,9.187148247070311,6.745581953125,9.316138247070313Q6.777891953125,9.445128247070311,6.816491953125,9.572368247070312Q6.855091953125,9.699618247070312,6.899891953125,9.824818247070311Q6.944681953125,9.950008247070311,6.995571953125,10.072858247070313Q7.046451953125,10.195708247070312,7.103311953125,10.315918247070313Q7.160161953125,10.436118247070311,7.222841953125,10.553398247070312Q7.285531953125,10.670658247070312,7.353891953125,10.784718247070312Q7.422251953125,10.898768247070313,7.496121953125,11.009328247070313Q7.570001953125,11.119898247070312,7.649211953125,11.226698247070313Q7.728421953125,11.333498247070313,7.812781953125,11.436288247070312Q7.897131953125,11.539078247070313,7.986431953125,11.637608247070313Q8.075731953125,11.736128247070312,8.169751953125001,11.830158247070312Q8.263781953125001,11.924178247070312,8.362311953125001,12.013478247070312Q8.460831953125,12.102778247070313,8.563621953125,12.187138247070312Q8.666411953125,12.271488247070312,8.773211953125,12.350698247070312Q8.880011953124999,12.429918247070313,8.990581953125,12.503788247070313Q9.101141953125001,12.577658247070312,9.215191953125,12.646028247070312Q9.329251953125,12.714428247070312,9.446521953125,12.777028247070312Q9.563791953125001,12.839728247070312,9.683991953125,12.896628247070312Q9.804201953125,12.953428247070313,9.927051953125,13.004328247070312Q10.049901953125,13.055228247070312,10.175101953125,13.100028247070313Q10.300291953125,13.144828247070313,10.427541953125,13.183428247070312Q10.554791953125001,13.222028247070313,10.683771953125,13.254328247070312Q10.812761953125,13.286628247070313,10.943181953125,13.312628247070313Q11.073591953125,13.338528247070313,11.205131953125,13.358028247070312Q11.336661953125,13.377528247070313,11.468991953125,13.390628247070312Q11.601321953125,13.403628247070312,11.734131953125,13.410128247070313Q11.866951953125,13.416628247070312,11.999921953125,13.416628247070312ZM11.999921953125,4.0833282470703125Q12.192331953125,4.0833282470703125,12.383821953125,4.102188247070313Q12.575301953125,4.121048247070313,12.764051953125,4.158588247070313Q12.952751953125,4.1961282470703125,13.136851953125,4.251978247070312Q13.320951953125,4.307828247070312,13.498751953125,4.381468247070313Q13.676551953125,4.455098247070312,13.846251953125,4.545798247070312Q14.015951953125,4.636508247070312,14.175851953125,4.743408247070312Q14.335851953125,4.850308247070313,14.484651953125,4.972368247070312Q14.633351953125,5.094438247070313,14.769451953125,5.230488247070312Q14.905451953125,5.3665482470703125,15.027551953125,5.515288247070313Q15.149651953125,5.664028247070313,15.256551953125,5.824008247070312Q15.363451953125,5.983998247070312,15.454151953125,6.1536882470703125Q15.544851953125,6.323388247070312,15.618451953125,6.501148247070312Q15.692051953125,6.678918247070312,15.747951953125,6.863048247070313Q15.803751953125,7.047178247070312,15.841351953125,7.235888247070313Q15.878851953125,7.424608247070313,15.897751953125,7.616098247070313Q15.916551953125,7.807578247070312,15.916551953125,7.999998247070312Q15.916551953125,8.192408247070311,15.897751953125,8.383898247070313Q15.878851953125,8.575378247070311,15.841351953125,8.764098247070311Q15.803751953125,8.952818247070311,15.747951953125,9.136948247070311Q15.692051953125,9.321068247070311,15.618451953125,9.498838247070314Q15.544851953125,9.676608247070313,15.454151953125,9.846298247070312Q15.363451953125,10.015988247070313,15.256551953125,10.175978247070312Q15.149651953125,10.335968247070312,15.027551953125,10.484698247070313Q14.905451953125,10.633438247070313,14.769451953125,10.769498247070313Q14.633351953125,10.905558247070312,14.484651953125,11.027618247070313Q14.335851953125,11.149688247070312,14.175851953125,11.256588247070313Q14.015951953125,11.363488247070313,13.846251953125,11.454188247070313Q13.676551953125,11.544888247070313,13.498751953125,11.618518247070313Q13.320951953125,11.692158247070312,13.136851953125,11.748008247070313Q12.952751953125,11.803868247070312,12.764051953125,11.841408247070312Q12.575301953125,11.878938247070312,12.383821953125,11.897798247070313Q12.192331953125,11.916658247070313,11.999921953125,11.916658247070313Q11.807501953125,11.916658247070313,11.616021953125,11.897798247070313Q11.424531953125,11.878938247070312,11.235811953125,11.841398247070313Q11.047101953125,11.803868247070312,10.862971953125,11.748008247070313Q10.678841953125,11.692158247070312,10.501071953124999,11.618518247070313Q10.323311953125,11.544888247070313,10.153611953125,11.454188247070313Q9.983921953125,11.363488247070313,9.823931953125001,11.256588247070313Q9.663951953125,11.149688247070312,9.515211953125,11.027618247070313Q9.366471953125,10.905558247070312,9.230411953125,10.769498247070313Q9.094361953125,10.633438247070313,8.972291953125,10.484698247070313Q8.850231953125,10.335968247070312,8.743331953125,10.175978247070312Q8.636431953125001,10.015988247070313,8.545721953125,9.846298247070312Q8.455021953125,9.676608247070313,8.381391953125,9.498838247070314Q8.307751953124999,9.321068247070311,8.251901953125,9.136948247070311Q8.196051953125,8.952818247070311,8.158511953125,8.764098247070311Q8.120971953125,8.575388247070313,8.102111953125,8.383898247070313Q8.083251953125,8.192408247070311,8.083251953125,7.999998247070312Q8.083251953125,7.807578247070312,8.102111953125,7.616098247070313Q8.120971953125,7.424608247070313,8.158511953125,7.235888247070313Q8.196051953125,7.047178247070312,8.251901953125,6.863048247070313Q8.307751953124999,6.678918247070312,8.381391953125,6.501148247070312Q8.455021953125,6.323388247070312,8.545721953125,6.1536882470703125Q8.636431953125001,5.983998247070312,8.743331953125,5.824008247070312Q8.850231953125,5.664028247070313,8.972291953125,5.515288247070313Q9.094361953125,5.3665482470703125,9.230411953125,5.230488247070312Q9.366471953125,5.094438247070313,9.515211953125,4.972368247070312Q9.663951953125,4.850308247070313,9.823931953125001,4.743408247070312Q9.983921953125,4.636508247070312,10.153611953125,4.545798247070312Q10.323311953125,4.455098247070312,10.501071953124999,4.381468247070313Q10.678841953125,4.307828247070312,10.862971953125,4.251978247070312Q11.047101953125,4.1961282470703125,11.235811953125,4.158588247070313Q11.424531953125,4.121048247070313,11.616021953125,4.102188247070313Q11.807501953125,4.0833282470703125,11.999921953125,4.0833282470703125ZM2.583251953125,20.66612824707031Q2.583251953125,18.14662824707031,4.364831953125,16.365028247070313Q6.146401953125,14.583428247070312,8.665931953125,14.583428247070312L15.333951953125,14.583428247070312Q17.853451953125003,14.583428247070312,19.635051953125,16.365028247070313Q21.416551953125,18.14662824707031,21.416551953125,20.66612824707031Q21.416551953125,20.740028247070313,21.402151953125,20.81242824707031Q21.387751953125,20.884928247070313,21.359451953125,20.953128247070314Q21.331251953125,21.02142824707031,21.290151953125,21.082828247070314Q21.249151953125,21.144228247070313,21.196951953125,21.196428247070312Q21.144651953125,21.248728247070314,21.083251953125,21.28972824707031Q21.021851953125,21.33072824707031,20.953551953125,21.359028247070313Q20.885351953125,21.38732824707031,20.812951953125,21.401728247070313Q20.740451953125,21.41612824707031,20.666551953125,21.41612824707031Q20.592751953125,21.41612824707031,20.520251953125,21.401728247070313Q20.447851953125,21.38732824707031,20.379551953125,21.359028247070313Q20.311351953125,21.33072824707031,20.249951953125,21.28972824707031Q20.188451953125,21.248728247070314,20.136251953125,21.196428247070312Q20.084051953125,21.144228247070313,20.042951953125,21.082828247070314Q20.001951953125,21.02142824707031,19.973651953125,20.953128247070314Q19.945451953125,20.884928247070313,19.930951953125,20.81242824707031Q19.916551953125,20.740028247070313,19.916551953125,20.66612824707031Q19.916551953125,18.767928247070312,18.574351953125,17.42572824707031Q17.232151953124998,16.083428247070312,15.333951953125,16.083428247070312L8.665931953125,16.083428247070312Q6.767721953125,16.083428247070312,5.425491953125,17.42572824707031Q4.083251953125,18.767928247070312,4.083251953125,20.66612824707031Q4.083251953125,20.740028247070313,4.068841953125,20.81242824707031Q4.054431953125,20.884928247070313,4.0261619531249995,20.953128247070314Q3.997891953125,21.02142824707031,3.9568519531249997,21.082828247070314Q3.915811953125,21.144228247070313,3.863581953125,21.196428247070312Q3.811351953125,21.248728247070314,3.749931953125,21.28972824707031Q3.688511953125,21.33072824707031,3.620261953125,21.359028247070313Q3.552018953125,21.38732824707031,3.479569953125,21.401728247070313Q3.407120953125,21.41612824707031,3.333251953125,21.41612824707031Q3.259382953125,21.41612824707031,3.186933953125,21.401728247070313Q3.114484953125,21.38732824707031,3.046238953125,21.359028247070313Q2.977993953125,21.33072824707031,2.916573953125,21.28972824707031Q2.855154953125,21.248728247070314,2.802921953125,21.196428247070312Q2.750688953125,21.144228247070313,2.709649953125,21.082828247070314Q2.668610553125,21.02142824707031,2.640342253125,20.953128247070314Q2.612074053125,20.884928247070313,2.597662953125,20.81242824707031Q2.583251953125,20.740028247070313,2.583251953125,20.66612824707031Z" fill-rule="evenodd" fill="#666666" fill-opacity="1"/></g></g></svg>